<svg class="{{ include.class }}" viewBox="0 0 800 800" version="1.1" xmlns="http://www.w3.org/2000/svg" xmlns:xlink="http://www.w3.org/1999/xlink" xml:space="preserve" xmlns:serif="http://www.serif.com/" style="fill-rule:evenodd;clip-rule:evenodd;stroke-linejoin:round;stroke-miterlimit:2;">
  <g transform="matrix(20.0619,0,0,24.0316,-2280.42,-10324.3)">
    <path d="M128.531,459.374L136.121,453.016C136.811,452.438 137.747,452.114 138.725,452.114C139.702,452.114 140.639,452.438 141.328,453.016L145.042,456.127C142.072,458.538 138.017,460.024 133.55,460.024C131.8,460.024 130.114,459.797 128.531,459.374Z"/>
  </g>
  <g transform="matrix(-20.0619,6.73834e-15,-7.35091e-15,-24.0316,3285.73,11124.3)">
    <path d="M148.918,459.374C147.335,459.797 145.649,460.024 143.9,460.024C139.432,460.024 135.377,458.538 132.408,456.127L136.117,453.02C136.808,452.441 137.746,452.116 138.725,452.116C139.703,452.116 140.642,452.441 141.332,453.02L148.918,459.374Z"/>
  </g>
  <g transform="matrix(1.22844e-15,20.0619,-24.0316,1.47151e-15,11234,-2383.08)">
    <path d="M127.488,460.943C127.631,460.378 127.966,459.847 128.475,459.421C131.125,457.201 134.07,454.734 136.121,453.016C136.811,452.438 137.747,452.114 138.725,452.114C139.702,452.114 140.639,452.438 141.328,453.016C143.374,454.729 146.309,457.188 148.953,459.403C149.47,459.837 149.809,460.378 149.949,460.952C147.005,463.239 143.059,464.638 138.725,464.638C134.385,464.638 130.434,463.235 127.488,460.943Z"/>
  </g>
</svg>