<svg class="{{ include.class }}" viewBox="0 0 2518 627" fill="none" xmlns="http://www.w3.org/2000/svg">
  <path d="M716.37 263.496C695.914 263.496 677.094 271.681 664.003 288.052V267.588H628V457.489H664.003V351.898C664.003 319.975 682.822 297.874 709.824 297.874C720.461 297.874 732.735 300.33 740.917 305.241L743.372 306.878L752.373 270.862L750.736 270.044C740.917 265.133 730.28 263.496 716.37 263.496Z" fill="#2A2A48"/>
  <path d="M929.932 288.87C914.386 272.5 892.293 263.496 866.928 263.496C812.924 263.496 772.012 306.06 772.012 362.539C772.012 419.018 812.924 461.582 866.928 461.582C892.293 461.582 914.386 452.578 929.932 436.207V457.489H966.753V266.77H929.932V288.87ZM870.201 427.203C834.198 427.203 808.833 400.192 808.833 362.539C808.833 324.886 835.016 297.874 870.201 297.874C906.203 297.874 931.569 324.886 931.569 362.539C931.569 399.373 905.385 427.203 870.201 427.203Z" fill="#2A2A48"/>
  <path d="M1062.49 266.769H1026.49V456.67H1062.49V266.769Z" fill="#2A2A48"/>
  <path d="M1044.48 179.186C1030.57 179.186 1019.94 189.827 1019.94 204.56C1019.94 218.475 1030.57 229.116 1044.48 229.116C1058.39 229.116 1069.85 218.475 1069.85 204.56C1069.85 189.827 1058.39 179.186 1044.48 179.186Z" fill="#2A2A48"/>
  <path d="M1268.68 288.87C1253.14 272.499 1231.04 263.495 1205.68 263.495C1151.67 263.495 1110.76 306.059 1110.76 362.538C1110.76 419.017 1151.67 461.581 1205.68 461.581C1231.04 461.581 1253.14 452.577 1268.68 436.207V457.489H1305.5V171H1268.68V288.87ZM1208.95 427.203C1172.95 427.203 1147.58 400.191 1147.58 362.538C1147.58 324.885 1173.77 297.873 1208.95 297.873C1244.95 297.873 1270.32 324.885 1270.32 362.538C1270.32 399.372 1244.14 427.203 1208.95 427.203Z" fill="#2A2A48"/>
  <path d="M1465.06 263.495C1439.7 263.495 1417.6 272.499 1402.06 288.87V171H1366.05V456.67H1402.06V435.388C1417.6 451.759 1439.7 460.763 1465.06 460.763C1519.07 460.763 1559.98 418.199 1559.98 361.719C1559.98 305.24 1519.07 263.495 1465.06 263.495ZM1460.97 297.873C1496.97 297.873 1522.34 324.885 1522.34 362.538C1522.34 400.191 1496.16 427.203 1460.97 427.203C1424.97 427.203 1399.6 400.191 1399.6 362.538C1399.6 324.885 1425.79 297.873 1460.97 297.873Z" fill="#2A2A48"/>
  <path d="M1695.81 263.496C1638.53 263.496 1595.16 306.06 1595.16 362.539C1595.16 419.018 1638.53 461.582 1695.81 461.582C1753.08 461.582 1796.45 419.018 1796.45 362.539C1796.45 306.06 1753.08 263.496 1695.81 263.496ZM1758.81 362.539C1758.81 400.192 1731.81 427.203 1695.81 427.203C1658.99 427.203 1632.8 400.192 1632.8 362.539C1632.8 324.886 1659.8 297.874 1695.81 297.874C1731.81 297.874 1758.81 324.886 1758.81 362.539Z" fill="#2A2A48"/>
  <path d="M2000.19 270.862L2003.46 266.769H1960.1L1906.91 334.708L1855.36 267.588L1854.54 266.769H1810.36L1883.18 360.082L1811.18 453.396L1808.72 457.489H1851.27L1905.27 387.094L1960.1 457.489H2005.1L1929.82 360.082L2000.19 270.862Z" fill="#2A2A48"/>
  <path d="M2113.11 263.496C2058.29 263.496 2019.01 305.241 2019.01 362.539C2019.01 420.655 2058.29 461.582 2115.56 461.582C2147.47 461.582 2172.02 452.578 2193.3 432.933L2194.93 431.296L2175.29 405.921L2173.66 407.558C2157.29 421.474 2137.65 428.84 2118.02 428.84C2085.29 428.84 2062.38 408.377 2057.47 375.635H2203.11V370.724C2203.11 367.45 2203.11 364.994 2203.11 361.72C2202.3 303.604 2165.48 263.496 2113.11 263.496ZM2057.47 345.349C2063.19 314.245 2083.65 295.419 2113.11 295.419C2141.75 295.419 2161.38 314.245 2166.29 345.349H2057.47Z" fill="#2A2A48"/>
  <path d="M2334.03 346.167L2312.76 343.711C2289.85 341.255 2278.39 333.889 2278.39 321.611C2278.39 306.058 2293.94 296.236 2317.67 296.236C2341.4 296.236 2364.31 305.24 2376.58 313.425L2378.22 315.062L2394.58 286.413L2392.95 285.595C2374.13 272.498 2346.31 265.131 2317.67 265.131C2270.21 265.131 2240.75 288.05 2240.75 324.066C2240.75 345.348 2252.21 371.541 2304.58 378.09L2325.85 380.545C2349.58 383.819 2361.03 391.186 2361.03 403.464C2361.03 419.835 2343.85 429.658 2313.58 429.658C2280.85 429.658 2262.85 419.017 2251.39 410.013L2249.75 408.376L2232.57 436.206L2234.21 437.024C2263.66 459.125 2299.67 461.581 2313.58 461.581C2365.13 461.581 2397.86 437.843 2397.86 401.009C2398.67 369.904 2377.4 351.896 2334.03 346.167Z" fill="#2A2A48"/>
  <path d="M170.36 239.812L387.188 169.36L457.64 386.188L240.812 456.64L231.603 428.298C218.598 429.286 205.913 429.267 193.744 428.273L217.7 502L503 409.3L410.3 124L125 216.7L169.832 354.679L172.891 355.401C173.029 355.434 173.169 355.468 173.308 355.502C183.83 358.121 195.977 359.579 209.275 359.578L170.36 239.812Z" fill="#2A2A48"/>
  <path d="M283.008 368.005C325.887 353.836 359.766 330.564 380.002 306L404 321.001C381.309 351.932 342.278 380.726 293.007 397.007C243.605 413.332 194.695 413.427 158.015 402.008L168.015 376.006C198.902 383.695 240.1 382.184 283.008 368.005Z" fill="#2A2A48"/>
</svg>    