<?xml version="1.0" standalone="no"?>
<!DOCTYPE svg PUBLIC "-//W3C//DTD SVG 20010904//EN"
 "http://www.w3.org/TR/2001/REC-SVG-20010904/DTD/svg10.dtd">
<svg version="1.0" xmlns="http://www.w3.org/2000/svg"
 width="800.000000pt" height="800.000000pt" viewBox="0 0 800.000000 800.000000"
 preserveAspectRatio="xMidYMid meet">
<metadata>
Created by potrace 1.14, written by Peter Selinger 2001-2017
</metadata>
<g transform="translate(0.000000,800.000000) scale(0.100000,-0.100000)"
fill="#000000" stroke="none">
<path d="M0 4000 l0 -4000 4000 0 4000 0 0 4000 0 4000 -4000 0 -4000 0 0
-4000z m4350 2864 c572 -73 1115 -328 1540 -723 l75 -69 -95 -98 c-415 -431
-608 -621 -670 -657 -217 -126 -479 -112 -683 36 -64 46 -1370 1388 -1360
1398 13 12 221 67 333 88 272 50 588 60 860 25z m-2224 -975 c73 -44 132 -102
746 -729 809 -828 750 -764 802 -872 51 -107 68 -176 68 -288 0 -112 -17 -181
-68 -288 -52 -108 12 -38 -837 -906 -312 -320 -596 -605 -630 -634 -72 -62
-188 -121 -243 -125 -37 -2 -41 1 -121 97 -157 188 -307 430 -413 671 -397
899 -314 1955 217 2775 72 110 181 255 244 324 l50 55 65 -23 c35 -13 89 -39
120 -57z m2944 -3148 c149 -47 209 -102 800 -715 l95 -98 -75 -69 c-368 -343
-841 -587 -1330 -689 -349 -72 -764 -72 -1113 0 -109 22 -278 69 -290 79 -7 7
1155 1212 1300 1348 77 73 173 126 275 153 94 26 243 22 338 -9z"/>
</g>
</svg>
