<?xml version="1.0" standalone="no"?>
<!DOCTYPE svg PUBLIC "-//W3C//DTD SVG 20010904//EN"
 "http://www.w3.org/TR/2001/REC-SVG-20010904/DTD/svg10.dtd">
<svg version="1.0" xmlns="http://www.w3.org/2000/svg"
 width="800.000000pt" height="800.000000pt" viewBox="0 0 800.000000 800.000000"
 preserveAspectRatio="xMidYMid meet">
<metadata>
Created by potrace 1.14, written by Peter Selinger 2001-2017
</metadata>
<g transform="translate(0.000000,800.000000) scale(0.100000,-0.100000)"
fill="#000000" stroke="none">
<path d="M4295 7300 c-231 -15 -425 -47 -652 -107 -79 -21 -143 -40 -143 -43
0 -3 359 -364 798 -801 866 -865 844 -845 1017 -906 73 -25 92 -27 225 -27
131 0 152 3 225 28 162 55 185 74 630 517 l410 408 -30 32 c-17 17 -70 66
-120 108 -650 560 -1510 848 -2360 791z"/>
<path d="M2002 6165 c-789 -914 -1018 -2162 -606 -3302 131 -363 344 -724 606
-1028 68 -79 75 -85 103 -79 53 11 170 61 231 99 41 26 314 293 894 874 905
905 881 879 937 1046 24 72 27 94 27 225 0 131 -3 153 -27 225 -56 167 -31
140 -942 1051 -719 720 -850 847 -912 883 -68 41 -191 90 -223 91 -8 0 -48
-38 -88 -85z"/>
<path d="M5385 2576 c-96 -22 -171 -54 -248 -106 -52 -35 -290 -267 -857 -834
-431 -432 -782 -787 -780 -789 13 -10 251 -69 365 -91 230 -45 382 -59 640
-59 259 -1 414 13 642 59 479 97 930 296 1318 583 106 79 260 208 310 260 l30
32 -410 408 c-445 443 -468 462 -630 517 -98 33 -282 43 -380 20z"/>
</g>
</svg>
